{"title":"Braven (2018) 720p H264 AC3 6Ch Webrip.mkv","magnet":"magnet:?xt=urn:btih:074e943db377670374102cc5064d58fd4daa6837&dn=Braven+%282018%29+720p+H264+AC3+6Ch+Webrip.mkv&tr=udp%3A%2F%2Ftracker.leechers-paradise.org%3A6969&tr=udp%3A%2F%2Fzer0day.ch%3A1337&tr=udp%3A%2F%2Fopen.demonii.com%3A1337&tr=udp%3A%2F%2Ftracker.coppersurfer.tk%3A6969&tr=udp%3A%2F%2Fexodus.desync.com%3A6969","uploader":"OmikronChannel","categoryP":"video","categoryS":"movies","size":"3097577122","seeders":"41","leechers":"64","description":"SAMPLE\r\n <a href=\"\nhttp://www.omikronchannel.eu/2018/02/braven-2018-720p-h264-ac3-6ch-webrip.html\" rel=\"nofollow\" target=\"_NEW\">\nhttp://www.omikronchannel.eu/2018/02/braven-2018-720p-h264-ac3-6ch-webrip.html</a>\r\n\r\n\r\nMEDIA INFO\r\n\r\nVideo\r\nID                                       : 1\r\nFormat                                   : AVC\r\nFormat/Info                              : Advanced Video Codec\r\nFormat profile                           : <a href=\"/cdn-cgi/l/email-protection\" class=\"__cf_email__\" data-cfemail=\"793418101739354a5748\">[email&#xA0;protected]</a>\r\nFormat settings, CABAC                   : No\r\nFormat settings, ReFrames                : 2 frames\r\nCodec ID                                 : V_MPEG4/ISO/AVC\r\nDuration                                 : 1h 33mn\r\nBit rate                                 : 4 011 Kbps\r\nWidth                                    : 1 280 pixels\r\nHeight                                   : 540 pixels\r\nDisplay aspect ratio                     : 2.40:1\r\nFrame rate mode                          : Constant\r\nFrame rate                               : 23.976 fps\r\nColor space                              : YUV\r\nChroma subsampling                       : 4:2:0\r\nBit depth                                : 8 bits\r\nScan type                                : Progressive\r\nBits/(Pixel*Frame)                       : 0.242\r\nStream size                              : 2.63 GiB (91%)\r\nTitle                                    : Braven (2018) 720p H264 AC3 6Ch Webrip\r\nDefault                                  : Yes\r\nForced                                   : No\r\nColor range                              : Limited\r\nColor primaries                          : BT.709\r\nTransfer characteristics                 : BT.709\r\nMatrix coefficients                      : BT.709\r\n\r\nAudio\r\nID                                       : 2\r\nFormat                                   : AC-3\r\nFormat/Info                              : Audio Coding 3\r\nMode extension                           : CM (complete main)\r\nFormat settings, Endianness              : Big\r\nCodec ID                                 : A_AC3\r\nDuration                                 : 1h 33mn\r\nBit rate mode                            : Constant\r\nBit rate                                 : 384 Kbps\r\nChannel(s)                               : 6 channels\r\nChannel positions                        : Front: L C R, Side: L R, LFE\r\nSampling rate                            : 48.0 KHz\r\nFrame rate                               : 31.250 fps (1536 spf)\r\nCompression mode                         : Lossy\r\nStream size                              : 258 MiB (9%)\r\nTitle                                    : Surround\r\nLanguage                                 : English\r\nDefault                                  : Yes\r\nForced                                   : No\r\n\r\nText\r\nID                                       : 3\r\nFormat                                   : UTF-8\r\nCodec ID                                 : S_TEXT/UTF8\r\nCodec ID/Info                            : UTF-8 Plain Text\r\nDuration                                 : 15s 0ms\r\nBit rate                                 : 25 bps\r\nCount of elements                        : 1\r\nStream size                              : 47.0 Bytes (0%)\r\nTitle                                    : Omikron Channel\r\nLanguage                                 : English\r\nDefault                                  : Yes\r\nForced                                   : Yes","last_updated":"2018-02-03T12:11:42.549Z","parsed":{"xt":"urn:btih:074e943db377670374102cc5064d58fd4daa6837","dn":"Braven (2018) 720p H264 AC3 6Ch Webrip.mkv","tr":["udp://exodus.desync.com:6969","udp://open.demonii.com:1337","udp://tracker.coppersurfer.tk:6969","udp://tracker.leechers-paradise.org:6969","udp://zer0day.ch:1337"],"infoHash":"074e943db377670374102cc5064d58fd4daa6837","infoHashBuffer":{"type":"Buffer","data":[7,78,148,61,179,119,103,3,116,16,44,197,6,77,88,253,77,170,104,55]},"name":"Braven (2018) 720p H264 AC3 6Ch Webrip.mkv","announce":["udp://exodus.desync.com:6969","udp://open.demonii.com:1337","udp://tracker.coppersurfer.tk:6969","udp://tracker.leechers-paradise.org:6969","udp://zer0day.ch:1337"],"urlList":[]}}